<svg class="w-12 h-12 text-red-400 transition-all duration-700 transform group-hover:scale-110" viewBox="0 0 24 24" fill="none" xmlns="http://www.w3.org/2000/svg"><circle class="stroke-current animate-spin-slow" cx="12" cy="12" r="10" stroke-width="1" stroke-dasharray="1 3" filter="url(#glow)"></circle><path class="stroke-current animate-pulse" stroke-width="1.5" stroke-linecap="round" stroke-linejoin="round" d="M12 3L14 9L20 9L15 13L17 19L12 15L7 19L9 13L4 9L10 9L12 3Z" filter="url(#glow)"></path><path class="stroke-current animate-reverse-spin-slow opacity-70" stroke-width="1.5" stroke-linecap="round" d="M12 5C8.13 5 5 8.13 5 12s3.13 7 7 7c3.87 0 7-3.13 7-7"></path><g><circle class="fill-current animate-twinkle" cx="8.5" cy="5.94" r="0.5" style="animation-delay:0s"></circle><path class="stroke-current animate-dash" stroke-width="0.5" stroke-linecap="round" stroke-dasharray="0.5 2" d="M12 12L8.5 5.94"></path><circle class="fill-current animate-twinkle" cx="15.5" cy="5.94" r="0.5" style="animation-delay:0.3s"></circle><path class="stroke-current animate-dash" stroke-width="0.5" stroke-linecap="round" stroke-dasharray="0.5 2" d="M12 12L15.5 5.94"></path><circle class="fill-current animate-twinkle" cx="18.06" cy="12" r="0.5" style="animation-delay:0.6s"></circle><path class="stroke-current animate-dash" stroke-width="0.5" stroke-linecap="round" stroke-dasharray="0.5 2" d="M12 12L18.06 12"></path><circle class="fill-current animate-twinkle" cx="15.5" cy="18.06" r="0.5" style="animation-delay:0.9s"></circle><path class="stroke-current animate-dash" stroke-width="0.5" stroke-linecap="round" stroke-dasharray="0.5 2" d="M12 12L15.5 18.06"></path><circle class="fill-current animate-twinkle" cx="8.5" cy="18.06" r="0.5" style="animation-delay:1.2s"></circle><path class="stroke-current animate-dash" stroke-width="0.5" stroke-linecap="round" stroke-dasharray="0.5 2" d="M12 12L8.5 18.06"></path><circle class="fill-current animate-twinkle" cx="5.94" cy="12" r="0.5" style="animation-delay:1.5s"></circle><path class="stroke-current animate-dash" stroke-width="0.5" stroke-linecap="round" stroke-dasharray="0.5 2" d="M12 12L5.94 12"></path></g><defs><filter id="glow" x="-20%" y="-20%" width="140%" height="140%"><feGaussianBlur stdDeviation="1" result="blur"></feGaussianBlur><feFlood flood-color="#EF4444" flood-opacity="0.5"></feFlood><feComposite in2="blur" operator="in"></feComposite><feMerge><feMergeNode></feMergeNode><feMergeNode in="SourceGraphic"></feMergeNode></feMerge></filter></defs></svg>